# xmcd
#
# Track frame offsets:
#	150
#	18588
#	37698
#	53797
#	69762
#	90311
#	107063
#	124781
#	140371
#	156692
#	173107
#	189114
#	207876
#
# Disc length: 3035 seconds
#
# Revision: 1
# Processed by: cddbd v1.4PL0 Copyright (c) Steve Scherf et al.
# Submitted via: audiograbber 1.82.01
#
DISCID=a20bd90d
DTITLE=Shania Twain - Tribute to Shania Twain
DYEAR=1900
DGENRE=
TTITLE0=Any Man of Mine
TTITLE1=Whose Bed Have Your Boots Been Under
TTITLE2=Love Gets Me Every Time
TTITLE3=You're Still the One
TTITLE4=From this Moment On
TTITLE5=That Don't Impress Me Much
TTITLE6=Man I Feel Like a Woman
TTITLE7=You've Got a Way
TTITLE8=Don't be Stupid
TTITLE9=When
TTITLE10=Black Eyes, Blue Tears
TTITLE11=I Won't Leave You Lonely
TTITLE12=Rock this Country!
EXTD=
EXTT0=
EXTT1=
EXTT2=
EXTT3=
EXTT4=
EXTT5=
EXTT6=
EXTT7=
EXTT8=
EXTT9=
EXTT10=
EXTT11=
EXTT12=
PLAYORDER=
